# Blender v2.92.0 OBJ File: ''
# www.blender.org
mtllib sword.mtl
o Cube_Cube.001
v -0.146964 -1.000000 -0.018705
v -0.146964 1.000000 -0.018705
v -0.146964 -1.000000 0.018705
v -0.146964 1.000000 0.018705
v 0.146964 -1.000000 -0.018705
v 0.146964 1.000000 -0.018705
v 0.146964 -1.000000 0.018705
v 0.146964 1.000000 0.018705
v -0.099479 2.361605 -0.012661
v -0.099479 2.361605 0.012661
v 0.099479 2.361605 0.012661
v 0.099479 2.361605 -0.012661
v -0.006688 3.244504 -0.000851
v -0.006688 3.244504 0.000851
v 0.006688 3.244504 0.000851
v 0.006688 3.244504 -0.000851
v -0.310487 -1.027043 0.039518
v -0.310487 -1.027043 -0.039518
v 0.310487 -1.027043 0.039518
v 0.310487 -1.027043 -0.039518
v -0.310487 -1.060853 0.039518
v -0.310487 -1.060853 -0.039518
v 0.310487 -1.060853 0.039518
v 0.310487 -1.060853 -0.039518
v -0.067951 -1.098879 0.008649
v -0.067951 -1.098879 -0.008649
v 0.067951 -1.098879 0.008649
v 0.067951 -1.098879 -0.008649
v -0.067951 -1.445382 0.008649
v -0.067951 -1.445382 -0.008649
v 0.067951 -1.445382 0.008649
v 0.067951 -1.445382 -0.008649
v -0.089118 -1.478913 0.011343
v -0.089118 -1.478913 -0.011343
v 0.089118 -1.478913 0.011343
v 0.089118 -1.478913 -0.011343
v -0.089118 -1.559622 0.011343
v -0.089118 -1.559622 -0.011343
v 0.089118 -1.559622 0.011343
v 0.089118 -1.559622 -0.011343
v -0.071493 -1.583139 0.009099
v -0.071493 -1.583139 -0.009099
v 0.071493 -1.583139 0.009099
v 0.071493 -1.583139 -0.009099
vt 0.375000 0.500000
vt 0.375000 0.250000
vt 0.375000 0.250000
vt 0.875000 0.500000
vt 0.625000 0.500000
vt 0.625000 0.750000
vt 0.375000 0.750000
vt 0.375000 0.500000
vt 0.375000 0.500000
vt 0.375000 0.000000
vt 0.375000 0.000000
vt 0.375000 0.750000
vt 0.375000 1.000000
vt 0.375000 1.000000
vt 0.375000 0.750000
vt 0.375000 0.750000
vt 0.375000 0.000000
vt 0.375000 1.000000
vt 0.375000 0.250000
vt 0.375000 0.500000
vt 0.375000 0.500000
vt 0.375000 0.250000
vt 0.375000 0.000000
vt 0.375000 0.250000
vt 0.375000 0.000000
vt 0.375000 0.000000
vt 0.375000 1.000000
vt 0.375000 0.750000
vt 0.375000 1.000000
vt 0.375000 0.750000
vt 0.375000 0.750000
vt 0.375000 1.000000
vt 0.375000 0.250000
vt 0.375000 0.500000
vt 0.375000 0.500000
vt 0.375000 0.500000
vt 0.375000 0.250000
vt 0.375000 0.000000
vt 0.125000 0.500000
vt 0.125000 0.750000
vt 0.375000 0.000000
vt 0.375000 1.000000
vt 0.375000 0.750000
vt 0.375000 0.250000
vt 0.875000 0.750000
vt 0.375000 1.000000
vt 0.625000 0.000000
vt 0.625000 0.250000
vt 0.625000 0.500000
vt 0.625000 0.750000
vt 0.625000 0.750000
vt 0.625000 1.000000
vt 0.625000 1.000000
vt 0.625000 0.250000
vt 0.625000 1.000000
vt 0.625000 0.500000
vt 0.625000 0.000000
vt 0.625000 0.250000
vt 0.625000 0.000000
vn 0.0000 0.6099 0.7925
vn 0.0000 1.0000 0.0000
vn 1.0000 0.0000 0.0000
vn -0.1632 0.9866 0.0000
vn 0.1632 0.9866 0.0000
vn 0.0000 0.6099 -0.7925
vn 0.0000 -0.6303 -0.7764
vn -1.0000 0.0000 0.0000
vn 0.0000 0.0000 -1.0000
vn 0.0000 0.0000 1.0000
vn 0.0000 -0.6303 0.7764
vn 0.1549 -0.9879 0.0000
vn -0.1549 -0.9879 0.0000
vn -0.8456 0.5338 0.0000
vn 0.0000 0.0801 -0.9968
vn 0.0000 0.0801 0.9968
vn 0.8456 0.5338 0.0000
vn 0.8002 -0.5997 0.0000
vn 0.0000 -1.0000 0.0000
vn -0.8002 -0.5997 0.0000
vn 0.0000 -0.0950 -0.9955
vn 0.0000 -0.0950 0.9955
vn 0.9994 0.0349 0.0000
vn 0.0000 0.0134 -0.9999
vn -0.9994 0.0349 0.0000
vn 0.0000 0.0044 -1.0000
vn 0.0000 0.0044 1.0000
vn 0.0000 0.0134 0.9999
vn 0.9945 0.1045 0.0000
vn -0.9945 0.1045 0.0000
usemtl Material.002
s off
f 7/1/1 3/2/1 17/3/1
f 14/4/2 15/5/2 16/6/2
f 20/7/3 19/8/3 23/9/3
f 3/2/4 1/10/4 18/11/4
f 5/12/5 7/1/5 19/8/5
f 1/13/6 5/12/6 20/7/6
f 22/14/7 24/15/7 28/16/7
f 17/3/8 18/11/8 22/17/8
f 18/18/9 20/7/9 24/15/9
f 19/8/10 17/3/10 21/19/10
f 28/16/3 27/20/3 31/21/3
f 23/9/11 21/19/11 25/22/11
f 24/15/12 23/9/12 27/20/12
f 21/19/13 22/17/13 26/23/13
f 29/24/14 30/25/14 34/26/14
f 25/22/8 26/23/8 30/25/8
f 26/27/9 28/16/9 32/28/9
f 27/20/10 25/22/10 29/24/10
f 34/29/9 36/30/9 40/31/9
f 30/32/15 32/28/15 36/30/15
f 31/21/16 29/24/16 33/33/16
f 32/28/17 31/21/17 35/34/17
f 40/31/18 39/35/18 43/36/18
f 35/34/10 33/33/10 37/37/10
f 36/30/3 35/34/3 39/35/3
f 33/33/8 34/26/8 38/38/8
f 43/36/19 41/39/19 42/40/19
f 37/37/20 38/38/20 42/41/20
f 38/42/21 40/31/21 44/43/21
f 39/35/22 37/37/22 41/44/22
f 7/1/1 17/3/1 19/8/1
f 14/4/2 16/6/2 13/45/2
f 20/7/3 23/9/3 24/15/3
f 3/2/4 18/11/4 17/3/4
f 5/12/5 19/8/5 20/7/5
f 1/13/6 20/7/6 18/18/6
f 22/14/7 28/16/7 26/27/7
f 17/3/8 22/17/8 21/19/8
f 18/18/9 24/15/9 22/14/9
f 19/8/10 21/19/10 23/9/10
f 28/16/3 31/21/3 32/28/3
f 23/9/11 25/22/11 27/20/11
f 24/15/12 27/20/12 28/16/12
f 21/19/13 26/23/13 25/22/13
f 29/24/14 34/26/14 33/33/14
f 25/22/8 30/25/8 29/24/8
f 26/27/9 32/28/9 30/32/9
f 27/20/10 29/24/10 31/21/10
f 34/29/9 40/31/9 38/42/9
f 30/32/15 36/30/15 34/29/15
f 31/21/16 33/33/16 35/34/16
f 32/28/17 35/34/17 36/30/17
f 40/31/18 43/36/18 44/43/18
f 35/34/10 37/37/10 39/35/10
f 36/30/3 39/35/3 40/31/3
f 33/33/8 38/38/8 37/37/8
f 43/36/19 42/40/19 44/43/19
f 37/37/20 42/41/20 41/44/20
f 38/42/21 44/43/21 42/46/21
f 39/35/22 41/44/22 43/36/22
usemtl Material.003
f 2/47/8 1/10/8 3/2/8
f 4/48/10 3/2/10 7/1/10
f 8/49/3 7/1/3 5/12/3
f 6/50/9 5/12/9 1/13/9
f 8/49/23 6/50/23 12/51/23
f 12/51/24 9/52/24 13/53/24
f 2/47/25 4/48/25 10/54/25
f 6/50/26 2/55/26 9/52/26
f 4/48/27 8/49/27 11/56/27
f 10/54/28 11/56/28 15/5/28
f 11/56/29 12/51/29 16/6/29
f 9/57/30 10/54/30 14/58/30
f 2/47/8 3/2/8 4/48/8
f 4/48/10 7/1/10 8/49/10
f 8/49/3 5/12/3 6/50/3
f 6/50/9 1/13/9 2/55/9
f 8/49/23 12/51/23 11/56/23
f 12/51/24 13/53/24 16/6/24
f 2/47/25 10/54/25 9/57/25
f 6/50/26 9/52/26 12/51/26
f 4/48/27 11/56/27 10/54/27
f 10/54/28 15/5/28 14/58/28
f 11/56/29 16/6/29 15/5/29
f 9/57/30 14/58/30 13/59/30
